<?xml version="1.0" encoding="utf-8" standalone="no"?>
<!DOCTYPE svg PUBLIC "-//W3C//DTD SVG 1.1//EN"
  "http://www.w3.org/Graphics/SVG/1.1/DTD/svg11.dtd">
<svg xmlns:xlink="http://www.w3.org/1999/xlink" width="518.740157pt" height="360pt" viewBox="0 0 518.740157 360" xmlns="http://www.w3.org/2000/svg" version="1.1">
 <metadata>
  <rdf:RDF xmlns:dc="http://purl.org/dc/elements/1.1/" xmlns:cc="http://creativecommons.org/ns#" xmlns:rdf="http://www.w3.org/1999/02/22-rdf-syntax-ns#">
   <cc:Work>
    <dc:type rdf:resource="http://purl.org/dc/dcmitype/StillImage"/>
    <dc:date>2026-07-20T17:25:21.260307</dc:date>
    <dc:format>image/svg+xml</dc:format>
    <dc:creator>
     <cc:Agent>
      <dc:title>Matplotlib v3.9.2, https://matplotlib.org/</dc:title>
     </cc:Agent>
    </dc:creator>
   </cc:Work>
  </rdf:RDF>
 </metadata>
 <defs>
  <style type="text/css">*{stroke-linejoin: round; stroke-linecap: butt}</style>
 </defs>
 <g id="figure_1">
  <g id="patch_1">
   <path d="M 0 360
L 518.740157 360
L 518.740157 0
L 0 0
z
" style="fill: #ffffff"/>
  </g>
  <g id="axes_1">
   <g id="patch_2">
    <path d="M 42.46295 83.316159
L 93.009268 83.316159
Q 99.695288 83.316159 99.695288 81.11548
L 99.695288 42.031417
Q 99.695288 39.830738 93.009268 39.830738
L 42.46295 39.830738
Q 35.776929 39.830738 35.776929 42.031417
L 35.776929 81.11548
Q 35.776929 83.316159 42.46295 83.316159
z
" clip-path="url(#p85a283c2e3)" style="fill: #d8e6f5; stroke: #14589c; stroke-width: 1.25; stroke-linejoin: miter"/>
   </g>
   <g id="patch_3">
    <path d="M 107.985954 83.316159
L 158.532272 83.316159
Q 165.218293 83.316159 165.218293 81.11548
L 165.218293 42.031417
Q 165.218293 39.830738 158.532272 39.830738
L 107.985954 39.830738
Q 101.299933 39.830738 101.299933 42.031417
L 101.299933 81.11548
Q 101.299933 83.316159 107.985954 83.316159
z
" clip-path="url(#p85a283c2e3)" style="fill: #ddf1df; stroke: #2e9f47; stroke-width: 1.25; stroke-linejoin: miter"/>
   </g>
   <g id="patch_4">
    <path d="M 173.508958 83.316159
L 224.055276 83.316159
Q 230.741297 83.316159 230.741297 81.11548
L 230.741297 42.031417
Q 230.741297 39.830738 224.055276 39.830738
L 173.508958 39.830738
Q 166.822938 39.830738 166.822938 42.031417
L 166.822938 81.11548
Q 166.822938 83.316159 173.508958 83.316159
z
" clip-path="url(#p85a283c2e3)" style="fill: #ddf1df; stroke: #2e9f47; stroke-width: 1.25; stroke-linejoin: miter"/>
   </g>
   <g id="patch_5">
    <path d="M 239.031962 83.316159
L 289.57828 83.316159
Q 296.264301 83.316159 296.264301 81.11548
L 296.264301 42.031417
Q 296.264301 39.830738 289.57828 39.830738
L 239.031962 39.830738
Q 232.345942 39.830738 232.345942 42.031417
L 232.345942 81.11548
Q 232.345942 83.316159 239.031962 83.316159
z
" clip-path="url(#p85a283c2e3)" style="fill: #ddf1df; stroke: #2e9f47; stroke-width: 1.25; stroke-linejoin: miter"/>
   </g>
   <g id="text_1">
    <text style="font: 700 11px 'DejaVu Sans'; text-anchor: start" x="18.928157" y="19.316108" transform="rotate(-0 18.928157 19.316108)">a</text>
   </g>
   <g id="text_2">
    <text style="fill: #222222; font: 7.1px 'DejaVu Sans'" transform="translate(49.668828 59.557381)">1,000,000</text>
    <text style="fill: #222222; font: 7.1px 'DejaVu Sans'" transform="translate(40.257445 67.507828)">qualified cycles</text>
   </g>
   <g id="text_3">
    <text style="fill: #222222; font: 7.1px 'DejaVu Sans'" transform="translate(131.000425 55.582158)">0</text>
    <text style="fill: #222222; font: 7.1px 'DejaVu Sans'" transform="translate(128.627472 63.532605)">bit</text>
    <text style="fill: #222222; font: 7.1px 'DejaVu Sans'" transform="translate(115.738754 71.483052)">mismatch</text>
   </g>
   <g id="text_4">
    <text style="fill: #222222; font: 7.1px 'DejaVu Sans'" transform="translate(196.52343 55.582158)">0</text>
    <text style="fill: #222222; font: 7.1px 'DejaVu Sans'" transform="translate(180.920625 63.532605)">undefined</text>
    <text style="fill: #222222; font: 7.1px 'DejaVu Sans'" transform="translate(187.854773 71.483052)">action</text>
   </g>
   <g id="text_5">
    <text style="fill: #222222; font: 7.1px 'DejaVu Sans'" transform="translate(262.046434 55.582158)">0</text>
    <text style="fill: #222222; font: 7.1px 'DejaVu Sans'" transform="translate(254.657441 63.532605)">silent</text>
    <text style="fill: #222222; font: 7.1px 'DejaVu Sans'" transform="translate(249.076731 71.483052)">overflow</text>
   </g>
   <g id="text_6">
    <text style="fill: #777777; font: italic 6.2px 'DejaVu Sans'; text-anchor: start" x="38.986219" y="94.583637" transform="rotate(-0 38.986219 94.583637)">10 families · fixed-point integer golden · actual integrated RTL</text>
   </g>
   <g id="text_7">
    <text style="fill: #777777; font: italic 6.2px 'DejaVu Sans'; text-anchor: start" x="38.986219" y="102.506082" transform="rotate(-0 38.986219 102.506082)">abstract FIFO receiver; physical transport excluded</text>
   </g>
   <g id="text_8">
    <text style="font: 700 9.5px 'DejaVu Sans'; text-anchor: start" x="36.311811" y="11" transform="rotate(-0 36.311811 11)">Million-cycle integer/CXXRTL</text>
   </g>
  </g>
  <g id="axes_2">
   <g id="patch_6">
    <path d="M 352.036557 63.774128
L 369.239507 63.774128
L 369.239507 42.647607
L 352.036557 42.647607
z
" clip-path="url(#p8a564d03ef)" style="fill: #d8e6f5; stroke: #14589c; stroke-linejoin: miter"/>
   </g>
   <g id="patch_7">
    <path d="M 373.335448 63.774128
L 390.538399 63.774128
L 390.538399 42.647607
L 373.335448 42.647607
z
" clip-path="url(#p8a564d03ef)" style="fill: #d8e6f5; stroke: #14589c; stroke-linejoin: miter"/>
   </g>
   <g id="patch_8">
    <path d="M 394.63434 63.774128
L 411.837291 63.774128
L 411.837291 42.647607
L 394.63434 42.647607
z
" clip-path="url(#p8a564d03ef)" style="fill: #d8e6f5; stroke: #14589c; stroke-linejoin: miter"/>
   </g>
   <g id="patch_9">
    <path d="M 415.933231 63.774128
L 433.136182 63.774128
L 433.136182 42.647607
L 415.933231 42.647607
z
" clip-path="url(#p8a564d03ef)" style="fill: #d8e6f5; stroke: #14589c; stroke-linejoin: miter"/>
   </g>
   <g id="patch_10">
    <path d="M 437.232123 63.774128
L 454.435074 63.774128
L 454.435074 42.647607
L 437.232123 42.647607
z
" clip-path="url(#p8a564d03ef)" style="fill: #d8e6f5; stroke: #14589c; stroke-linejoin: miter"/>
   </g>
   <g id="patch_11">
    <path d="M 458.531014 63.774128
L 475.733965 63.774128
L 475.733965 42.647607
L 458.531014 42.647607
z
" clip-path="url(#p8a564d03ef)" style="fill: #d8e6f5; stroke: #14589c; stroke-linejoin: miter"/>
   </g>
   <g id="patch_12">
    <path d="M 479.829906 63.774128
L 497.032857 63.774128
L 497.032857 42.647607
L 479.829906 42.647607
z
" clip-path="url(#p8a564d03ef)" style="fill: #ddf1df; stroke: #2e9f47; stroke-linejoin: miter"/>
   </g>
   <g id="text_9">
    <text style="font: 700 11px 'DejaVu Sans'; text-anchor: start" x="336.471982" y="19.316108" transform="rotate(-0 336.471982 19.316108)">b</text>
   </g>
   <g id="text_10">
    <text style="fill: #14589c; font: 7.5px 'DejaVu Sans'; text-anchor: middle" x="360.638032" y="55.280399" transform="rotate(-0 360.638032 55.280399)">C0</text>
   </g>
   <g id="text_11">
    <text style="fill: #14589c; font: 7.5px 'DejaVu Sans'; text-anchor: middle" x="381.936924" y="55.280399" transform="rotate(-0 381.936924 55.280399)">C1</text>
   </g>
   <g id="text_12">
    <text style="fill: #14589c; font: 7.5px 'DejaVu Sans'; text-anchor: middle" x="403.235815" y="55.280399" transform="rotate(-0 403.235815 55.280399)">C2</text>
   </g>
   <g id="text_13">
    <text style="fill: #14589c; font: 7.5px 'DejaVu Sans'; text-anchor: middle" x="424.534707" y="55.280399" transform="rotate(-0 424.534707 55.280399)">C3</text>
   </g>
   <g id="text_14">
    <text style="fill: #14589c; font: 7.5px 'DejaVu Sans'; text-anchor: middle" x="445.833598" y="55.280399" transform="rotate(-0 445.833598 55.280399)">C4</text>
   </g>
   <g id="text_15">
    <text style="fill: #14589c; font: 7.5px 'DejaVu Sans'; text-anchor: middle" x="467.13249" y="55.280399" transform="rotate(-0 467.13249 55.280399)">C5</text>
   </g>
   <g id="text_16">
    <text style="fill: #2e9f47; font: 7.5px 'DejaVu Sans'; text-anchor: middle" x="488.431381" y="55.280399" transform="rotate(-0 488.431381 55.280399)">C6</text>
   </g>
   <g id="text_17">
    <text style="fill: #14589c; font: 7.5px 'DejaVu Sans'; text-anchor: start" x="352.036557" y="78.738747" transform="rotate(-0 352.036557 78.738747)">source</text>
   </g>
   <g id="text_18">
    <text style="fill: #2e9f47; font: 7.5px 'DejaVu Sans'; text-anchor: end" x="501.128797" y="78.738747" transform="rotate(-0 501.128797 78.738747)">action valid</text>
   </g>
   <g id="text_19">
    <text style="fill: #222222; font: 700 7.5px 'DejaVu Sans'; text-anchor: start" x="352.036557" y="92.823094" transform="rotate(-0 352.036557 92.823094)">6 cycles · II=1</text>
   </g>
   <g id="text_20">
    <text style="fill: #222222; font: 700 6.5px 'DejaVu Sans'; text-anchor: start" x="352.036557" y="100.745539" transform="rotate(-0 352.036557 100.745539)">222.222 ns at assumed 27 MHz</text>
   </g>
   <g id="text_21">
    <text style="fill: #bf4545; font: 700 6.1px 'DejaVu Sans'; text-anchor: start" x="352.036557" y="109.548256" transform="rotate(-0 352.036557 109.548256)">clock model; transport/jitter excluded</text>
   </g>
   <g id="text_22">
    <text style="font: 700 9.5px 'DejaVu Sans'; text-anchor: start" x="347.121428" y="11" transform="rotate(-0 347.121428 11)">Timing ownership</text>
   </g>
  </g>
  <g id="axes_3">
   <g id="patch_13">
    <path d="M 36.311811 251.223094
L 303.752644 251.223094
L 303.752644 148.52473
L 36.311811 148.52473
z
" style="fill: #ffffff"/>
   </g>
   <g id="matplotlib.axis_1">
    <g id="xtick_1">
     <g id="line2d_1">
      <defs>
       <path id="mdb5023770e" d="M 0 0
L 0 2.5
" style="stroke: #000000; stroke-width: 0.7"/>
      </defs>
      <g>
       <use xlink:href="#mdb5023770e" x="56.420999" y="251.223094" style="stroke: #000000; stroke-width: 0.7"/>
      </g>
     </g>
     <g id="text_23">
      <text style="font: 6.7px 'DejaVu Sans'; text-anchor: middle" x="56.420999" y="262.314047" transform="rotate(-0 56.420999 262.314047)">seed 1</text>
     </g>
    </g>
    <g id="xtick_2">
     <g id="line2d_2">
      <g>
       <use xlink:href="#mdb5023770e" x="170.032228" y="251.223094" style="stroke: #000000; stroke-width: 0.7"/>
      </g>
     </g>
     <g id="text_24">
      <text style="font: 6.7px 'DejaVu Sans'; text-anchor: middle" x="170.032228" y="262.314047" transform="rotate(-0 170.032228 262.314047)">seed 7</text>
     </g>
    </g>
    <g id="xtick_3">
     <g id="line2d_3">
      <g>
       <use xlink:href="#mdb5023770e" x="283.643456" y="251.223094" style="stroke: #000000; stroke-width: 0.7"/>
      </g>
     </g>
     <g id="text_25">
      <text style="font: 6.7px 'DejaVu Sans'; text-anchor: middle" x="283.643456" y="262.314047" transform="rotate(-0 283.643456 262.314047)">seed 19</text>
     </g>
    </g>
   </g>
   <g id="matplotlib.axis_2">
    <g id="ytick_1">
     <g id="line2d_4">
      <path d="M 36.311811 251.223094
L 303.752644 251.223094
" clip-path="url(#pc2a63ea9a0)" style="fill: none; stroke: #d9d9d9; stroke-opacity: 0.75; stroke-width: 0.55; stroke-linecap: square"/>
     </g>
     <g id="line2d_5">
      <defs>
       <path id="m305741f7e8" d="M 0 0
L -2.5 0
" style="stroke: #000000; stroke-width: 0.7"/>
      </defs>
      <g>
       <use xlink:href="#m305741f7e8" x="36.311811" y="251.223094" style="stroke: #000000; stroke-width: 0.7"/>
      </g>
     </g>
     <g id="text_26">
      <text style="font: 6.7px 'DejaVu Sans'; text-anchor: end" x="30.311811" y="253.76857" transform="rotate(-0 30.311811 253.76857)">25</text>
     </g>
    </g>
    <g id="ytick_2">
     <g id="line2d_6">
      <path d="M 36.311811 222.69577
L 303.752644 222.69577
" clip-path="url(#pc2a63ea9a0)" style="fill: none; stroke: #d9d9d9; stroke-opacity: 0.75; stroke-width: 0.55; stroke-linecap: square"/>
     </g>
     <g id="line2d_7">
      <g>
       <use xlink:href="#m305741f7e8" x="36.311811" y="222.69577" style="stroke: #000000; stroke-width: 0.7"/>
      </g>
     </g>
     <g id="text_27">
      <text style="font: 6.7px 'DejaVu Sans'; text-anchor: end" x="30.311811" y="225.241247" transform="rotate(-0 30.311811 225.241247)">30</text>
     </g>
    </g>
    <g id="ytick_3">
     <g id="line2d_8">
      <path d="M 36.311811 194.168447
L 303.752644 194.168447
" clip-path="url(#pc2a63ea9a0)" style="fill: none; stroke: #d9d9d9; stroke-opacity: 0.75; stroke-width: 0.55; stroke-linecap: square"/>
     </g>
     <g id="line2d_9">
      <g>
       <use xlink:href="#m305741f7e8" x="36.311811" y="194.168447" style="stroke: #000000; stroke-width: 0.7"/>
      </g>
     </g>
     <g id="text_28">
      <text style="font: 6.7px 'DejaVu Sans'; text-anchor: end" x="30.311811" y="196.713924" transform="rotate(-0 30.311811 196.713924)">35</text>
     </g>
    </g>
    <g id="ytick_4">
     <g id="line2d_10">
      <path d="M 36.311811 165.641124
L 303.752644 165.641124
" clip-path="url(#pc2a63ea9a0)" style="fill: none; stroke: #d9d9d9; stroke-opacity: 0.75; stroke-width: 0.55; stroke-linecap: square"/>
     </g>
     <g id="line2d_11">
      <g>
       <use xlink:href="#m305741f7e8" x="36.311811" y="165.641124" style="stroke: #000000; stroke-width: 0.7"/>
      </g>
     </g>
     <g id="text_29">
      <text style="font: 6.7px 'DejaVu Sans'; text-anchor: end" x="30.311811" y="168.1866" transform="rotate(-0 30.311811 168.1866)">40</text>
     </g>
    </g>
    <g id="text_30">
     <text style="font: 7.5px 'DejaVu Sans'; text-anchor: middle" x="16.226295" y="199.873912" transform="rotate(-90 16.226295 199.873912)">Achieved Fmax (MHz)</text>
    </g>
   </g>
   <g id="line2d_12">
    <path d="M 36.311811 239.812164
L 303.752644 239.812164
" clip-path="url(#pc2a63ea9a0)" style="fill: none; stroke-dasharray: 3.33,1.44; stroke-dashoffset: 0; stroke: #777777; stroke-width: 0.9"/>
   </g>
   <g id="patch_14">
    <path d="M 36.311811 251.223094
L 36.311811 148.52473
" style="fill: none; stroke: #000000; stroke-width: 0.8; stroke-linejoin: miter; stroke-linecap: square"/>
   </g>
   <g id="patch_15">
    <path d="M 36.311811 251.223094
L 303.752644 251.223094
" style="fill: none; stroke: #000000; stroke-width: 0.8; stroke-linejoin: miter; stroke-linecap: square"/>
   </g>
   <g id="text_31">
    <text style="font: 700 11px 'DejaVu Sans'; text-anchor: start" x="18.928157" y="148.667142" transform="rotate(-0 18.928157 148.667142)">c</text>
   </g>
   <g id="line2d_13">
    <path d="M 48.468213 163.345196
L 162.079441 164.13412
L 275.69067 170.562605
" clip-path="url(#pc2a63ea9a0)" style="fill: none; stroke: #14589c; stroke-width: 1.3; stroke-linecap: square"/>
    <defs>
     <path id="m88c260b259" d="M 0 2.25
C 0.596707 2.25 1.169055 2.012926 1.59099 1.59099
C 2.012926 1.169055 2.25 0.596707 2.25 0
C 2.25 -0.596707 2.012926 -1.169055 1.59099 -1.59099
C 1.169055 -2.012926 0.596707 -2.25 0 -2.25
C -0.596707 -2.25 -1.169055 -2.012926 -1.59099 -1.59099
C -2.012926 -1.169055 -2.25 -0.596707 -2.25 0
C -2.25 0.596707 -2.012926 1.169055 -1.59099 1.59099
C -1.169055 2.012926 -0.596707 2.25 0 2.25
z
" style="stroke: #14589c"/>
    </defs>
    <g clip-path="url(#pc2a63ea9a0)">
     <use xlink:href="#m88c260b259" x="48.468213" y="163.345196" style="fill: #14589c; stroke: #14589c"/>
     <use xlink:href="#m88c260b259" x="162.079441" y="164.13412" style="fill: #14589c; stroke: #14589c"/>
     <use xlink:href="#m88c260b259" x="275.69067" y="170.562605" style="fill: #14589c; stroke: #14589c"/>
    </g>
   </g>
   <g id="line2d_14">
    <path d="M 64.373785 174.165259
L 177.985014 168.641028
L 291.596242 169.358847
" clip-path="url(#pc2a63ea9a0)" style="fill: none; stroke: #d99718; stroke-width: 1.3; stroke-linecap: square"/>
    <defs>
     <path id="mc96f455bbd" d="M 0 2.25
C 0.596707 2.25 1.169055 2.012926 1.59099 1.59099
C 2.012926 1.169055 2.25 0.596707 2.25 0
C 2.25 -0.596707 2.012926 -1.169055 1.59099 -1.59099
C 1.169055 -2.012926 0.596707 -2.25 0 -2.25
C -0.596707 -2.25 -1.169055 -2.012926 -1.59099 -1.59099
C -2.012926 -1.169055 -2.25 -0.596707 -2.25 0
C -2.25 0.596707 -2.012926 1.169055 -1.59099 1.59099
C -1.169055 2.012926 -0.596707 2.25 0 2.25
z
" style="stroke: #d99718"/>
    </defs>
    <g clip-path="url(#pc2a63ea9a0)">
     <use xlink:href="#mc96f455bbd" x="64.373785" y="174.165259" style="fill: #d99718; stroke: #d99718"/>
     <use xlink:href="#mc96f455bbd" x="177.985014" y="168.641028" style="fill: #d99718; stroke: #d99718"/>
     <use xlink:href="#mc96f455bbd" x="291.596242" y="169.358847" style="fill: #d99718; stroke: #d99718"/>
    </g>
   </g>
   <g id="text_32">
    <text style="fill: #bf4545; font: 700 7.5px 'DejaVu Sans'; text-anchor: end" x="298.403827" y="160.38546" transform="rotate(-0 298.403827 160.38546)">estimate ≠ vendor signoff</text>
   </g>
   <g id="text_33">
    <text style="font: 700 9.5px 'DejaVu Sans'; text-anchor: start" x="36.311811" y="141.52473" transform="rotate(-0 36.311811 141.52473)">Three-seed open-source P&amp;R estimate</text>
   </g>
   <g id="legend_1">
    <g id="line2d_15">
     <path d="M 42.251811 189.697537
L 48.851811 189.697537
L 55.451811 189.697537
" style="fill: none; stroke: #14589c; stroke-width: 1.3; stroke-linecap: square"/>
     <g>
      <use xlink:href="#m88c260b259" x="48.851811" y="189.697537" style="fill: #14589c; stroke: #14589c"/>
     </g>
    </g>
    <g id="text_34">
     <text style="font: 6.6px 'DejaVu Sans'; text-anchor: start" x="60.731811" y="192.007537" transform="rotate(-0 60.731811 192.007537)">selected core</text>
    </g>
    <g id="line2d_16">
     <path d="M 42.251811 199.385099
L 48.851811 199.385099
L 55.451811 199.385099
" style="fill: none; stroke: #d99718; stroke-width: 1.3; stroke-linecap: square"/>
     <g>
      <use xlink:href="#mc96f455bbd" x="48.851811" y="199.385099" style="fill: #d99718; stroke: #d99718"/>
     </g>
    </g>
    <g id="text_35">
     <text style="font: 6.6px 'DejaVu Sans'; text-anchor: start" x="60.731811" y="201.695099" transform="rotate(-0 60.731811 201.695099)">core + optional student</text>
    </g>
    <g id="line2d_17">
     <path d="M 42.251811 209.072662
L 48.851811 209.072662
L 55.451811 209.072662
" style="fill: none; stroke-dasharray: 3.33,1.44; stroke-dashoffset: 0; stroke: #777777; stroke-width: 0.9"/>
    </g>
    <g id="text_36">
     <text style="font: 6.6px 'DejaVu Sans'; text-anchor: start" x="60.731811" y="211.382662" transform="rotate(-0 60.731811 211.382662)">27-MHz target</text>
    </g>
   </g>
  </g>
  <g id="axes_4">
   <g id="patch_16">
    <path d="M 347.121428 251.223094
L 510.959055 251.223094
L 510.959055 148.52473
L 347.121428 148.52473
z
" style="fill: #ffffff"/>
   </g>
   <g id="matplotlib.axis_3">
    <g id="xtick_4">
     <g id="line2d_18">
      <g>
       <use xlink:href="#mdb5023770e" x="365.38926" y="251.223094" style="stroke: #000000; stroke-width: 0.7"/>
      </g>
     </g>
     <g id="text_37">
      <text style="font: 6.7px 'DejaVu Sans'; text-anchor: middle" x="365.38926" y="262.314047" transform="rotate(-0 365.38926 262.314047)">LUT4</text>
     </g>
    </g>
    <g id="xtick_5">
     <g id="line2d_19">
      <g>
       <use xlink:href="#mdb5023770e" x="397.21475" y="251.223094" style="stroke: #000000; stroke-width: 0.7"/>
      </g>
     </g>
     <g id="text_38">
      <text style="font: 6.7px 'DejaVu Sans'; text-anchor: middle" x="397.21475" y="262.314047" transform="rotate(-0 397.21475 262.314047)">FF</text>
     </g>
    </g>
    <g id="xtick_6">
     <g id="line2d_20">
      <g>
       <use xlink:href="#mdb5023770e" x="429.040241" y="251.223094" style="stroke: #000000; stroke-width: 0.7"/>
      </g>
     </g>
     <g id="text_39">
      <text style="font: 6.7px 'DejaVu Sans'; text-anchor: middle" x="429.040241" y="262.314047" transform="rotate(-0 429.040241 262.314047)">BRAM</text>
     </g>
    </g>
    <g id="xtick_7">
     <g id="line2d_21">
      <g>
       <use xlink:href="#mdb5023770e" x="460.865732" y="251.223094" style="stroke: #000000; stroke-width: 0.7"/>
      </g>
     </g>
     <g id="text_40">
      <text style="font: 6.7px 'DejaVu Sans'; text-anchor: middle" x="460.865732" y="262.314047" transform="rotate(-0 460.865732 262.314047)">M18</text>
     </g>
    </g>
    <g id="xtick_8">
     <g id="line2d_22">
      <g>
       <use xlink:href="#mdb5023770e" x="492.691223" y="251.223094" style="stroke: #000000; stroke-width: 0.7"/>
      </g>
     </g>
     <g id="text_41">
      <text style="font: 6.7px 'DejaVu Sans'; text-anchor: middle" x="492.691223" y="262.314047" transform="rotate(-0 492.691223 262.314047)">M9</text>
     </g>
    </g>
   </g>
   <g id="matplotlib.axis_4">
    <g id="ytick_5">
     <g id="line2d_23">
      <path d="M 347.121428 251.223094
L 510.959055 251.223094
" clip-path="url(#pf5fe80f483)" style="fill: none; stroke: #d9d9d9; stroke-opacity: 0.75; stroke-width: 0.55; stroke-linecap: square"/>
     </g>
     <g id="line2d_24">
      <g>
       <use xlink:href="#m305741f7e8" x="347.121428" y="251.223094" style="stroke: #000000; stroke-width: 0.7"/>
      </g>
     </g>
     <g id="text_42">
      <text style="font: 6.7px 'DejaVu Sans'; text-anchor: end" x="341.121428" y="253.76857" transform="rotate(-0 341.121428 253.76857)">0</text>
     </g>
    </g>
    <g id="ytick_6">
     <g id="line2d_25">
      <path d="M 347.121428 232.8841
L 510.959055 232.8841
" clip-path="url(#pf5fe80f483)" style="fill: none; stroke: #d9d9d9; stroke-opacity: 0.75; stroke-width: 0.55; stroke-linecap: square"/>
     </g>
     <g id="line2d_26">
      <g>
       <use xlink:href="#m305741f7e8" x="347.121428" y="232.8841" style="stroke: #000000; stroke-width: 0.7"/>
      </g>
     </g>
     <g id="text_43">
      <text style="font: 6.7px 'DejaVu Sans'; text-anchor: end" x="341.121428" y="235.429577" transform="rotate(-0 341.121428 235.429577)">5</text>
     </g>
    </g>
    <g id="ytick_7">
     <g id="line2d_27">
      <path d="M 347.121428 214.545107
L 510.959055 214.545107
" clip-path="url(#pf5fe80f483)" style="fill: none; stroke: #d9d9d9; stroke-opacity: 0.75; stroke-width: 0.55; stroke-linecap: square"/>
     </g>
     <g id="line2d_28">
      <g>
       <use xlink:href="#m305741f7e8" x="347.121428" y="214.545107" style="stroke: #000000; stroke-width: 0.7"/>
      </g>
     </g>
     <g id="text_44">
      <text style="font: 6.7px 'DejaVu Sans'; text-anchor: end" x="341.121428" y="217.090583" transform="rotate(-0 341.121428 217.090583)">10</text>
     </g>
    </g>
    <g id="ytick_8">
     <g id="line2d_29">
      <path d="M 347.121428 196.206113
L 510.959055 196.206113
" clip-path="url(#pf5fe80f483)" style="fill: none; stroke: #d9d9d9; stroke-opacity: 0.75; stroke-width: 0.55; stroke-linecap: square"/>
     </g>
     <g id="line2d_30">
      <g>
       <use xlink:href="#m305741f7e8" x="347.121428" y="196.206113" style="stroke: #000000; stroke-width: 0.7"/>
      </g>
     </g>
     <g id="text_45">
      <text style="font: 6.7px 'DejaVu Sans'; text-anchor: end" x="341.121428" y="198.75159" transform="rotate(-0 341.121428 198.75159)">15</text>
     </g>
    </g>
    <g id="ytick_9">
     <g id="line2d_31">
      <path d="M 347.121428 177.867119
L 510.959055 177.867119
" clip-path="url(#pf5fe80f483)" style="fill: none; stroke: #d9d9d9; stroke-opacity: 0.75; stroke-width: 0.55; stroke-linecap: square"/>
     </g>
     <g id="line2d_32">
      <g>
       <use xlink:href="#m305741f7e8" x="347.121428" y="177.867119" style="stroke: #000000; stroke-width: 0.7"/>
      </g>
     </g>
     <g id="text_46">
      <text style="font: 6.7px 'DejaVu Sans'; text-anchor: end" x="341.121428" y="180.412596" transform="rotate(-0 341.121428 180.412596)">20</text>
     </g>
    </g>
    <g id="ytick_10">
     <g id="line2d_33">
      <path d="M 347.121428 159.528126
L 510.959055 159.528126
" clip-path="url(#pf5fe80f483)" style="fill: none; stroke: #d9d9d9; stroke-opacity: 0.75; stroke-width: 0.55; stroke-linecap: square"/>
     </g>
     <g id="line2d_34">
      <g>
       <use xlink:href="#m305741f7e8" x="347.121428" y="159.528126" style="stroke: #000000; stroke-width: 0.7"/>
      </g>
     </g>
     <g id="text_47">
      <text style="font: 6.7px 'DejaVu Sans'; text-anchor: end" x="341.121428" y="162.073603" transform="rotate(-0 341.121428 162.073603)">25</text>
     </g>
    </g>
    <g id="text_48">
     <text style="font: 7.5px 'DejaVu Sans'; text-anchor: middle" x="327.035912" y="199.873912" transform="rotate(-90 327.035912 199.873912)">Used / available (%)</text>
    </g>
   </g>
   <g id="patch_17">
    <path d="M 354.568593 251.223094
L 365.38926 251.223094
L 365.38926 182.964822
L 354.568593 182.964822
z
" clip-path="url(#pf5fe80f483)" style="fill: #14589c; opacity: 0.88"/>
   </g>
   <g id="patch_18">
    <path d="M 386.394084 251.223094
L 397.21475 251.223094
L 397.21475 226.011694
L 386.394084 226.011694
z
" clip-path="url(#pf5fe80f483)" style="fill: #14589c; opacity: 0.88"/>
   </g>
   <g id="patch_19">
    <path d="M 418.219574 251.223094
L 429.040241 251.223094
L 429.040241 187.43529
L 418.219574 187.43529
z
" clip-path="url(#pf5fe80f483)" style="fill: #14589c; opacity: 0.88"/>
   </g>
   <g id="patch_20">
    <path d="M 450.045065 251.223094
L 460.865732 251.223094
L 460.865732 243.581846
L 450.045065 243.581846
z
" clip-path="url(#pf5fe80f483)" style="fill: #14589c; opacity: 0.88"/>
   </g>
   <g id="patch_21">
    <path d="M 481.870556 251.223094
L 492.691223 251.223094
L 492.691223 247.40247
L 481.870556 247.40247
z
" clip-path="url(#pf5fe80f483)" style="fill: #14589c; opacity: 0.88"/>
   </g>
   <g id="patch_22">
    <path d="M 365.38926 251.223094
L 376.209926 251.223094
L 376.209926 164.746107
L 365.38926 164.746107
z
" clip-path="url(#pf5fe80f483)" style="fill: #d99718; opacity: 0.88"/>
   </g>
   <g id="patch_23">
    <path d="M 397.21475 251.223094
L 408.035417 251.223094
L 408.035417 222.686337
L 397.21475 222.686337
z
" clip-path="url(#pf5fe80f483)" style="fill: #d99718; opacity: 0.88"/>
   </g>
   <g id="patch_24">
    <path d="M 429.040241 251.223094
L 439.860908 251.223094
L 439.860908 187.43529
L 429.040241 187.43529
z
" clip-path="url(#pf5fe80f483)" style="fill: #d99718; opacity: 0.88"/>
   </g>
   <g id="patch_25">
    <path d="M 460.865732 251.223094
L 471.686399 251.223094
L 471.686399 235.940599
L 460.865732 235.940599
z
" clip-path="url(#pf5fe80f483)" style="fill: #d99718; opacity: 0.88"/>
   </g>
   <g id="patch_26">
    <path d="M 492.691223 251.223094
L 503.51189 251.223094
L 503.51189 247.40247
L 492.691223 247.40247
z
" clip-path="url(#pf5fe80f483)" style="fill: #d99718; opacity: 0.88"/>
   </g>
   <g id="patch_27">
    <path d="M 347.121428 251.223094
L 347.121428 148.52473
" style="fill: none; stroke: #000000; stroke-width: 0.8; stroke-linejoin: miter; stroke-linecap: square"/>
   </g>
   <g id="patch_28">
    <path d="M 347.121428 251.223094
L 510.959055 251.223094
" style="fill: none; stroke: #000000; stroke-width: 0.8; stroke-linejoin: miter; stroke-linecap: square"/>
   </g>
   <g id="text_49">
    <text style="font: 700 11px 'DejaVu Sans'; text-anchor: start" x="336.471982" y="148.667142" transform="rotate(-0 336.471982 148.667142)">d</text>
   </g>
   <g id="text_50">
    <text style="fill: #222222; font: 5.2px 'DejaVu Sans'" transform="translate(361.413801 181.130923) rotate(-90)">3859</text>
   </g>
   <g id="text_51">
    <text style="fill: #222222; font: 5.2px 'DejaVu Sans'" transform="translate(393.239292 224.177795) rotate(-90)">1069</text>
   </g>
   <g id="text_52">
    <text style="fill: #222222; font: 5.2px 'DejaVu Sans'" transform="translate(425.064783 185.601391) rotate(-90)">8</text>
   </g>
   <g id="text_53">
    <text style="fill: #222222; font: 5.2px 'DejaVu Sans'" transform="translate(456.890274 241.747947) rotate(-90)">1</text>
   </g>
   <g id="text_54">
    <text style="fill: #222222; font: 5.2px 'DejaVu Sans'" transform="translate(488.715765 245.568571) rotate(-90)">1</text>
   </g>
   <g id="text_55">
    <text style="fill: #222222; font: 5.2px 'DejaVu Sans'" transform="translate(372.234468 162.912208) rotate(-90)">4889</text>
   </g>
   <g id="text_56">
    <text style="fill: #222222; font: 5.2px 'DejaVu Sans'" transform="translate(404.059959 220.852437) rotate(-90)">1210</text>
   </g>
   <g id="text_57">
    <text style="fill: #222222; font: 5.2px 'DejaVu Sans'" transform="translate(435.88545 185.601391) rotate(-90)">8</text>
   </g>
   <g id="text_58">
    <text style="fill: #222222; font: 5.2px 'DejaVu Sans'" transform="translate(467.710941 234.1067) rotate(-90)">2</text>
   </g>
   <g id="text_59">
    <text style="fill: #222222; font: 5.2px 'DejaVu Sans'" transform="translate(499.536432 245.568571) rotate(-90)">1</text>
   </g>
   <g id="text_60">
    <text style="font: 700 9.5px 'DejaVu Sans'; text-anchor: start" x="347.121428" y="141.52473" transform="rotate(-0 347.121428 141.52473)">Complete-profile resources</text>
   </g>
   <g id="legend_2">
    <g id="patch_29">
     <path d="M 422.423805 157.985839
L 433.823805 157.985839
L 433.823805 153.995839
L 422.423805 153.995839
z
" style="fill: #14589c; opacity: 0.88"/>
    </g>
    <g id="text_61">
     <text style="font: 5.7px 'DejaVu Sans'; text-anchor: start" x="438.383805" y="157.985839" transform="rotate(-0 438.383805 157.985839)">selected core</text>
    </g>
    <g id="patch_30">
     <path d="M 422.423805 166.35237
L 433.823805 166.35237
L 433.823805 162.36237
L 422.423805 162.36237
z
" style="fill: #d99718; opacity: 0.88"/>
    </g>
    <g id="text_62">
     <text style="font: 5.7px 'DejaVu Sans'; text-anchor: start" x="438.383805" y="166.35237" transform="rotate(-0 438.383805 166.35237)">core + optional student</text>
    </g>
   </g>
  </g>
  <g id="axes_5">
   <g id="patch_31">
    <path d="M 42.482225 334.060572
L 262.718546 334.060572
Q 274.584728 334.060572 274.584728 333.033588
L 274.584728 307.81087
Q 274.584728 306.783886 262.718546 306.783886
L 42.482225 306.783886
Q 30.616044 306.783886 30.616044 307.81087
L 30.616044 333.033588
Q 30.616044 334.060572 42.482225 334.060572
z
" clip-path="url(#p128e1d210c)" style="fill: #f4cbc7; stroke-dasharray: 4.625,2; stroke-dashoffset: 0; stroke: #bf4545; stroke-width: 1.25; stroke-linejoin: miter"/>
   </g>
   <g id="patch_32">
    <path d="M 289.298792 334.060572
L 500.042169 334.060572
Q 511.90835 334.060572 511.90835 333.033588
L 511.90835 307.81087
Q 511.90835 306.783886 500.042169 306.783886
L 289.298792 306.783886
Q 277.432611 306.783886 277.432611 307.81087
L 277.432611 333.033588
Q 277.432611 334.060572 289.298792 334.060572
z
" clip-path="url(#p128e1d210c)" style="fill: #ececec; stroke-dasharray: 4.625,2; stroke-dashoffset: 0; stroke: #777777; stroke-width: 1.25; stroke-linejoin: miter"/>
   </g>
   <g id="text_63">
    <text style="font: 700 11px 'DejaVu Sans'; text-anchor: start" x="5.45974" y="298.792588" transform="rotate(-0 5.45974 298.792588)">e</text>
   </g>
   <g id="text_64">
    <text style="fill: #222222; font: 7.2px 'DejaVu Sans'" transform="translate(101.678386 314.346554)">PHYSICAL BOARD: BLOCKED</text>
    <text style="fill: #222222; font: 7.2px 'DejaVu Sans'" transform="translate(104.602261 322.408979)">42/42 measured fields null</text>
    <text style="fill: #222222; font: 7.2px 'DejaVu Sans'" transform="translate(59.263636 330.471404)">latency · jitter · deadline · power · speed advantage</text>
   </g>
   <g id="text_65">
    <text style="fill: #222222; font: 7.2px 'DejaVu Sans'" transform="translate(327.67673 314.346554)">V5 HARDWARE: NOT RUN / DROPPED</text>
    <text style="fill: #222222; font: 7.2px 'DejaVu Sans'" transform="translate(304.399355 322.408979)">quantized · long CXXRTL · formal · multi-seed P&amp;R</text>
    <text style="fill: #222222; font: 7.2px 'DejaVu Sans'" transform="translate(327.979355 330.471404)">no result panel and no inferred value</text>
   </g>
   <g id="text_66">
    <text style="font: 700 9.5px 'DejaVu Sans'; text-anchor: start" x="36.311811" y="286.720655" transform="rotate(-0 36.311811 286.720655)">Physical-evidence and stopped-branch boundary</text>
   </g>
  </g>
 </g>
 <defs>
  <clipPath id="p85a283c2e3">
   <rect x="36.311811" y="18" width="267.440833" height="88.027169"/>
  </clipPath>
  <clipPath id="p8a564d03ef">
   <rect x="347.121428" y="18" width="163.837627" height="88.027169"/>
  </clipPath>
  <clipPath id="pc2a63ea9a0">
   <rect x="36.311811" y="148.52473" width="267.440833" height="102.698364"/>
  </clipPath>
  <clipPath id="pf5fe80f483">
   <rect x="347.121428" y="148.52473" width="163.837627" height="102.698364"/>
  </clipPath>
  <clipPath id="p128e1d210c">
   <rect x="36.311811" y="293.720655" width="474.647244" height="41.079345"/>
  </clipPath>
 </defs>
</svg>
