<?xml version="1.0" encoding="utf-8" standalone="no"?>
<!DOCTYPE svg PUBLIC "-//W3C//DTD SVG 1.1//EN"
  "http://www.w3.org/Graphics/SVG/1.1/DTD/svg11.dtd">
<svg xmlns:xlink="http://www.w3.org/1999/xlink" width="518.740157pt" height="360pt" viewBox="0 0 518.740157 360" xmlns="http://www.w3.org/2000/svg" version="1.1">
 <metadata>
  <rdf:RDF xmlns:dc="http://purl.org/dc/elements/1.1/" xmlns:cc="http://creativecommons.org/ns#" xmlns:rdf="http://www.w3.org/1999/02/22-rdf-syntax-ns#">
   <cc:Work>
    <dc:type rdf:resource="http://purl.org/dc/dcmitype/StillImage"/>
    <dc:date>2026-07-21T11:42:00.086583</dc:date>
    <dc:format>image/svg+xml</dc:format>
    <dc:creator>
     <cc:Agent>
      <dc:title>Matplotlib v3.9.2, https://matplotlib.org/</dc:title>
     </cc:Agent>
    </dc:creator>
   </cc:Work>
  </rdf:RDF>
 </metadata>
 <defs>
  <style type="text/css">*{stroke-linejoin: round; stroke-linecap: butt}</style>
 </defs>
 <g id="figure_1">
  <g id="patch_1">
   <path d="M 0 360 
L 518.740157 360 
L 518.740157 0 
L 0 0 
z
" style="fill: #ffffff"/>
  </g>
  <g id="axes_1">
   <g id="patch_2">
    <path d="M 54.467717 149.584252 
L 311.678572 149.584252 
L 311.678572 21.6 
L 54.467717 21.6 
z
" style="fill: #ffffff"/>
   </g>
   <g id="matplotlib.axis_1">
    <g id="xtick_1">
     <g id="line2d_1">
      <path d="M 54.467717 149.584252 
L 54.467717 21.6 
" clip-path="url(#p476589a591)" style="fill: none; stroke: #e8e8e8; stroke-width: 0.6; stroke-linecap: square"/>
     </g>
     <g id="line2d_2">
      <defs>
       <path id="mda583eed9a" d="M 0 0 
L 0 2.5 
" style="stroke: #000000; stroke-width: 0.8"/>
      </defs>
      <g>
       <use xlink:href="#mda583eed9a" x="54.467717" y="149.584252" style="stroke: #000000; stroke-width: 0.8"/>
      </g>
     </g>
     <g id="text_1">
      <text style="font: 6.6px 'Arial', 'DejaVu Sans', 'Liberation Sans', sans-serif; text-anchor: middle" x="54.467717" y="160.308408" transform="rotate(-0 54.467717 160.308408)">0.108</text>
     </g>
    </g>
    <g id="xtick_2">
     <g id="line2d_3">
      <path d="M 86.619074 149.584252 
L 86.619074 21.6 
" clip-path="url(#p476589a591)" style="fill: none; stroke: #e8e8e8; stroke-width: 0.6; stroke-linecap: square"/>
     </g>
     <g id="line2d_4">
      <g>
       <use xlink:href="#mda583eed9a" x="86.619074" y="149.584252" style="stroke: #000000; stroke-width: 0.8"/>
      </g>
     </g>
     <g id="text_2">
      <text style="font: 6.6px 'Arial', 'DejaVu Sans', 'Liberation Sans', sans-serif; text-anchor: middle" x="86.619074" y="160.308408" transform="rotate(-0 86.619074 160.308408)">0.109</text>
     </g>
    </g>
    <g id="xtick_3">
     <g id="line2d_5">
      <path d="M 118.77043 149.584252 
L 118.77043 21.6 
" clip-path="url(#p476589a591)" style="fill: none; stroke: #e8e8e8; stroke-width: 0.6; stroke-linecap: square"/>
     </g>
     <g id="line2d_6">
      <g>
       <use xlink:href="#mda583eed9a" x="118.77043" y="149.584252" style="stroke: #000000; stroke-width: 0.8"/>
      </g>
     </g>
     <g id="text_3">
      <text style="font: 6.6px 'Arial', 'DejaVu Sans', 'Liberation Sans', sans-serif; text-anchor: middle" x="118.77043" y="160.308408" transform="rotate(-0 118.77043 160.308408)">0.110</text>
     </g>
    </g>
    <g id="xtick_4">
     <g id="line2d_7">
      <path d="M 150.921787 149.584252 
L 150.921787 21.6 
" clip-path="url(#p476589a591)" style="fill: none; stroke: #e8e8e8; stroke-width: 0.6; stroke-linecap: square"/>
     </g>
     <g id="line2d_8">
      <g>
       <use xlink:href="#mda583eed9a" x="150.921787" y="149.584252" style="stroke: #000000; stroke-width: 0.8"/>
      </g>
     </g>
     <g id="text_4">
      <text style="font: 6.6px 'Arial', 'DejaVu Sans', 'Liberation Sans', sans-serif; text-anchor: middle" x="150.921787" y="160.308408" transform="rotate(-0 150.921787 160.308408)">0.111</text>
     </g>
    </g>
    <g id="xtick_5">
     <g id="line2d_9">
      <path d="M 183.073144 149.584252 
L 183.073144 21.6 
" clip-path="url(#p476589a591)" style="fill: none; stroke: #e8e8e8; stroke-width: 0.6; stroke-linecap: square"/>
     </g>
     <g id="line2d_10">
      <g>
       <use xlink:href="#mda583eed9a" x="183.073144" y="149.584252" style="stroke: #000000; stroke-width: 0.8"/>
      </g>
     </g>
     <g id="text_5">
      <text style="font: 6.6px 'Arial', 'DejaVu Sans', 'Liberation Sans', sans-serif; text-anchor: middle" x="183.073144" y="160.308408" transform="rotate(-0 183.073144 160.308408)">0.112</text>
     </g>
    </g>
    <g id="xtick_6">
     <g id="line2d_11">
      <path d="M 215.224501 149.584252 
L 215.224501 21.6 
" clip-path="url(#p476589a591)" style="fill: none; stroke: #e8e8e8; stroke-width: 0.6; stroke-linecap: square"/>
     </g>
     <g id="line2d_12">
      <g>
       <use xlink:href="#mda583eed9a" x="215.224501" y="149.584252" style="stroke: #000000; stroke-width: 0.8"/>
      </g>
     </g>
     <g id="text_6">
      <text style="font: 6.6px 'Arial', 'DejaVu Sans', 'Liberation Sans', sans-serif; text-anchor: middle" x="215.224501" y="160.308408" transform="rotate(-0 215.224501 160.308408)">0.113</text>
     </g>
    </g>
    <g id="xtick_7">
     <g id="line2d_13">
      <path d="M 247.375858 149.584252 
L 247.375858 21.6 
" clip-path="url(#p476589a591)" style="fill: none; stroke: #e8e8e8; stroke-width: 0.6; stroke-linecap: square"/>
     </g>
     <g id="line2d_14">
      <g>
       <use xlink:href="#mda583eed9a" x="247.375858" y="149.584252" style="stroke: #000000; stroke-width: 0.8"/>
      </g>
     </g>
     <g id="text_7">
      <text style="font: 6.6px 'Arial', 'DejaVu Sans', 'Liberation Sans', sans-serif; text-anchor: middle" x="247.375858" y="160.308408" transform="rotate(-0 247.375858 160.308408)">0.114</text>
     </g>
    </g>
    <g id="xtick_8">
     <g id="line2d_15">
      <path d="M 279.527215 149.584252 
L 279.527215 21.6 
" clip-path="url(#p476589a591)" style="fill: none; stroke: #e8e8e8; stroke-width: 0.6; stroke-linecap: square"/>
     </g>
     <g id="line2d_16">
      <g>
       <use xlink:href="#mda583eed9a" x="279.527215" y="149.584252" style="stroke: #000000; stroke-width: 0.8"/>
      </g>
     </g>
     <g id="text_8">
      <text style="font: 6.6px 'Arial', 'DejaVu Sans', 'Liberation Sans', sans-serif; text-anchor: middle" x="279.527215" y="160.308408" transform="rotate(-0 279.527215 160.308408)">0.115</text>
     </g>
    </g>
    <g id="xtick_9">
     <g id="line2d_17">
      <path d="M 311.678572 149.584252 
L 311.678572 21.6 
" clip-path="url(#p476589a591)" style="fill: none; stroke: #e8e8e8; stroke-width: 0.6; stroke-linecap: square"/>
     </g>
     <g id="line2d_18">
      <g>
       <use xlink:href="#mda583eed9a" x="311.678572" y="149.584252" style="stroke: #000000; stroke-width: 0.8"/>
      </g>
     </g>
     <g id="text_9">
      <text style="font: 6.6px 'Arial', 'DejaVu Sans', 'Liberation Sans', sans-serif; text-anchor: middle" x="311.678572" y="160.308408" transform="rotate(-0 311.678572 160.308408)">0.116</text>
     </g>
    </g>
    <g id="text_10">
     <!-- Logical error rate per round, $p_L$ -->
     <g transform="translate(132.272144 170.948158)">
      <text>
       <tspan style="font: 7.4px 'Arial'" x="0 4.110306 8.220612 12.330917 13.97287 17.668182 21.778488 23.420441 25.473785 29.584091 32.045227 34.506363 38.616669 41.077805 43.131149 45.592285 49.702591 51.755936 55.866241 57.919586 62.029892 66.140198 68.601334 70.654678 73.115814 77.22612 81.336426 85.446732 89.557037 91.610382" y="-0.703125">Logical error rate per round, </tspan>
       <tspan style="font: oblique 7.4px 'DejaVu Sans'" x="93.663727" y="-0.703125">p</tspan>
       <tspan style="font: oblique 5.18px 'DejaVu Sans'" x="98.355042" y="0.5109374999999998">L</tspan>
      </text>
     </g>
    </g>
   </g>
   <g id="matplotlib.axis_2">
    <g id="ytick_1">
     <g id="line2d_19">
      <defs>
       <path id="mf1c25f3108" d="M 0 0 
L -2.5 0 
" style="stroke: #000000; stroke-width: 0.8"/>
      </defs>
      <g>
       <use xlink:href="#mf1c25f3108" x="54.467717" y="55.119685" style="stroke: #000000; stroke-width: 0.8"/>
      </g>
     </g>
     <g id="text_11">
      <text style="font: 6.6px 'Arial', 'DejaVu Sans', 'Liberation Sans', sans-serif" transform="translate(8.12831 54.46381)">Static-mixture</text>
      <text style="font: 6.6px 'Arial', 'DejaVu Sans', 'Liberation Sans', sans-serif" transform="translate(16.925904 61.444548)">exact MLD</text>
     </g>
    </g>
    <g id="ytick_2">
     <g id="line2d_20">
      <g>
       <use xlink:href="#mf1c25f3108" x="54.467717" y="116.064567" style="stroke: #000000; stroke-width: 0.8"/>
      </g>
     </g>
     <g id="text_12">
      <text style="font: 6.6px 'Arial', 'DejaVu Sans', 'Liberation Sans', sans-serif" transform="translate(20.216623 115.408692)">Proposed</text>
      <text style="font: 6.6px 'Arial', 'DejaVu Sans', 'Liberation Sans', sans-serif" transform="translate(18.759467 122.389429)">risk action</text>
     </g>
    </g>
   </g>
   <g id="LineCollection_1">
    <path d="M 54.467717 55.119685 
L 182.403324 55.119685 
" clip-path="url(#p476589a591)" style="fill: none; stroke: #7884b4; stroke-width: 2.2"/>
    <path d="M 54.467717 116.064567 
L 182.403324 116.064567 
" clip-path="url(#p476589a591)" style="fill: none; stroke: #0f4d92; stroke-width: 2.2"/>
   </g>
   <g id="patch_3">
    <path d="M 54.467717 149.584252 
L 54.467717 21.6 
" style="fill: none; stroke: #000000; stroke-width: 0.8; stroke-linejoin: miter; stroke-linecap: square"/>
   </g>
   <g id="patch_4">
    <path d="M 54.467717 149.584252 
L 311.678572 149.584252 
" style="fill: none; stroke: #000000; stroke-width: 0.8; stroke-linejoin: miter; stroke-linecap: square"/>
   </g>
   <g id="text_13">
    <text style="font: 700 10.5px 'Arial', 'DejaVu Sans', 'Liberation Sans', sans-serif; text-anchor: start" x="39.035065" y="21.436648" transform="rotate(-0 39.035065 21.436648)">a</text>
   </g>
   <g id="PathCollection_1">
    <defs>
     <path id="C0_0_dfdc93126e" d="M 0 3.24037 
C 0.859356 3.24037 1.683631 2.898944 2.291288 2.291288 
C 2.898944 1.683631 3.24037 0.859356 3.24037 -0 
C 3.24037 -0.859356 2.898944 -1.683631 2.291288 -2.291288 
C 1.683631 -2.898944 0.859356 -3.24037 0 -3.24037 
C -0.859356 -3.24037 -1.683631 -2.898944 -2.291288 -2.291288 
C -2.898944 -1.683631 -3.24037 -0.859356 -3.24037 0 
C -3.24037 0.859356 -2.898944 1.683631 -2.291288 2.291288 
C -1.683631 2.898944 -0.859356 3.24037 0 3.24037 
z
"/>
    </defs>
    <g clip-path="url(#p476589a591)">
     <use xlink:href="#C0_0_dfdc93126e" x="182.403324" y="55.119685" style="fill: #7884b4; stroke: #272727; stroke-width: 0.65"/>
    </g>
    <g clip-path="url(#p476589a591)">
     <use xlink:href="#C0_0_dfdc93126e" x="182.403324" y="116.064567" style="fill: #0f4d92; stroke: #272727; stroke-width: 0.65"/>
    </g>
   </g>
   <g id="text_14">
    <text style="font: 6.4px 'Arial', 'DejaVu Sans', 'Liberation Sans', sans-serif; text-anchor: start" x="188.190569" y="56.774185" transform="rotate(-0 188.190569 56.774185)">0.111979</text>
   </g>
   <g id="text_15">
    <text style="font: 6.4px 'Arial', 'DejaVu Sans', 'Liberation Sans', sans-serif; text-anchor: start" x="188.190569" y="117.719067" transform="rotate(-0 188.190569 117.719067)">0.111979</text>
   </g>
   <g id="text_16">
    <g id="patch_5">
     <path d="M 233.72398 55.913851 
L 306.534355 55.913851 
Q 308.514355 55.913851 308.514355 53.933851 
L 308.514355 26.71937 
Q 308.514355 24.73937 306.534355 24.73937 
L 233.72398 24.73937 
Q 231.74398 24.73937 231.74398 26.71937 
L 231.74398 53.933851 
Q 231.74398 55.913851 233.72398 55.913851 
z
" style="fill: #f6cfcb; stroke: #b64342; stroke-width: 0.8; stroke-linejoin: miter"/>
    </g>
    <text style="fill: #b64342; font: 700 6.6px 'Arial', 'DejaVu Sans', 'Liberation Sans', sans-serif" transform="translate(242.896949 31.523964)">relative point = 0.0%</text>
    <text style="fill: #b64342; font: 700 6.6px 'Arial', 'DejaVu Sans', 'Liberation Sans', sans-serif" transform="translate(233.72398 38.591945)">paired 95% LCB = 0.0%</text>
    <text style="fill: #b64342; font: 700 6.6px 'Arial', 'DejaVu Sans', 'Liberation Sans', sans-serif" transform="translate(239.130824 45.659926)">required ≥15% / ≥12%</text>
    <text style="fill: #b64342; font: 700 6.6px 'Arial', 'DejaVu Sans', 'Liberation Sans', sans-serif" transform="translate(284.169636 52.631383)">NO-GO</text>
   </g>
   <g id="text_17">
    <text style="fill: #767676; font: 6px 'Arial', 'DejaVu Sans', 'Liberation Sans', sans-serif; text-anchor: start" x="57.039825" y="147.024567" transform="rotate(-0 57.039825 147.024567)">79,872 train-only rounds · pilot/formal not accessed</text>
   </g>
   <g id="text_18">
    <text style="font: 700 9px 'Arial', 'DejaVu Sans', 'Liberation Sans', sans-serif; text-anchor: start" x="54.467717" y="15.6" transform="rotate(-0 54.467717 15.6)">Strongest deployable denominator: zero causal headroom</text>
   </g>
  </g>
  <g id="axes_2">
   <g id="patch_6">
    <path d="M 358.588271 78.169039 
L 425.398212 78.169039 
Q 429.337477 78.169039 429.337477 74.969433 
L 429.337477 41.181591 
Q 429.337477 37.981984 425.398212 37.981984 
L 358.588271 37.981984 
Q 354.649006 37.981984 354.649006 41.181591 
L 354.649006 74.969433 
Q 354.649006 78.169039 358.588271 78.169039 
z
" clip-path="url(#p085e3a9884)" style="fill: #e8e8e8; stroke-dasharray: 3.7,1.6; stroke-dashoffset: 0; stroke: #767676; stroke-linejoin: miter"/>
   </g>
   <g id="patch_7">
    <path d="M 437.373578 78.169039 
L 505.759225 78.169039 
Q 509.69849 78.169039 509.69849 74.969433 
L 509.69849 41.181591 
Q 509.69849 37.981984 505.759225 37.981984 
L 437.373578 37.981984 
Q 433.434313 37.981984 433.434313 41.181591 
L 433.434313 74.969433 
Q 433.434313 78.169039 437.373578 78.169039 
z
" clip-path="url(#p085e3a9884)" style="fill: #e8e8e8; stroke-dasharray: 3.7,1.6; stroke-dashoffset: 0; stroke: #767676; stroke-linejoin: miter"/>
   </g>
   <g id="patch_8">
    <path d="M 358.588271 131.922425 
L 505.759225 131.922425 
Q 509.69849 131.922425 509.69849 128.722819 
L 509.69849 97.494661 
Q 509.69849 94.295055 505.759225 94.295055 
L 358.588271 94.295055 
Q 354.649006 94.295055 354.649006 97.494661 
L 354.649006 128.722819 
Q 354.649006 131.922425 358.588271 131.922425 
z
" clip-path="url(#p085e3a9884)" style="fill: #e8e8e8; stroke-dasharray: 3.7,1.6; stroke-dashoffset: 0; stroke: #767676; stroke-linejoin: miter"/>
   </g>
   <g id="text_19">
    <text style="font: 700 10.5px 'Arial', 'DejaVu Sans', 'Liberation Sans', sans-serif; text-anchor: start" x="343.934204" y="21.436648" transform="rotate(-0 343.934204 21.436648)">b</text>
   </g>
   <g id="text_20">
    <text style="fill: #272727; font: 6.7px 'Arial', 'DejaVu Sans', 'Liberation Sans', sans-serif" transform="translate(373.745687 52.72106)">LER context</text>
    <text style="fill: #272727; font: 6.7px 'Arial', 'DejaVu Sans', 'Liberation Sans', sans-serif" transform="translate(381.747999 59.807566)">0.1723</text>
    <text style="fill: #272727; font: 6.7px 'Arial', 'DejaVu Sans', 'Liberation Sans', sans-serif" transform="translate(361.823874 66.894073)">vs Euclidean 0.2369</text>
   </g>
   <g id="text_21">
    <text style="fill: #272727; font: 6.7px 'Arial', 'DejaVu Sans', 'Liberation Sans', sans-serif" transform="translate(454.810644 52.72106)">Tail context</text>
    <text style="fill: #272727; font: 6.7px 'Arial', 'DejaVu Sans', 'Liberation Sans', sans-serif" transform="translate(452.387128 59.807566)">worst 0.2910</text>
    <text style="fill: #272727; font: 6.7px 'Arial', 'DejaVu Sans', 'Liberation Sans', sans-serif" transform="translate(447.975597 66.894073)">CVaR95 0.2406</text>
   </g>
   <g id="text_22">
    <text style="fill: #272727; font: 6.7px 'Arial', 'DejaVu Sans', 'Liberation Sans', sans-serif" transform="translate(399.776631 111.248548)">Host compute context</text>
    <text style="fill: #272727; font: 6.7px 'Arial', 'DejaVu Sans', 'Liberation Sans', sans-serif" transform="translate(384.245193 118.433042)">193.1 µs/decode · 1853.8 s total</text>
   </g>
   <g id="text_23">
    <text style="fill: #b64342; font: 700 5.7px 'Arial', 'DejaVu Sans', 'Liberation Sans', sans-serif" transform="translate(372.306826 140.925759)">9.6M cycles · opened development evidence</text>
    <text style="fill: #b64342; font: 700 5.7px 'Arial', 'DejaVu Sans', 'Liberation Sans', sans-serif" transform="translate(393.115834 147.104738)">not strongest-baseline SOTA</text>
   </g>
   <g id="text_24">
    <text style="font: 700 9px 'Arial', 'DejaVu Sans', 'Liberation Sans', sans-serif; text-anchor: start" x="353.388441" y="15.6" transform="rotate(-0 353.388441 15.6)">Opened task-local context</text>
   </g>
  </g>
  <g id="axes_3">
   <g id="patch_9">
    <path d="M 60.383566 293.21915 
L 106.424309 293.21915 
Q 112.854581 293.21915 112.854581 290.324268 
L 112.854581 243.542976 
Q 112.854581 240.648094 106.424309 240.648094 
L 60.383566 240.648094 
Q 53.953295 240.648094 53.953295 243.542976 
L 53.953295 290.324268 
Q 53.953295 293.21915 60.383566 293.21915 
z
" clip-path="url(#pa4ba30e7b5)" style="fill: #f6cfcb; stroke: #b64342; stroke-linejoin: miter"/>
   </g>
   <g id="patch_10">
    <path d="M 112.285276 266.933622 
Q 115.042487 266.933622 116.681665 266.933622 
" clip-path="url(#pa4ba30e7b5)" style="fill: none; stroke-dasharray: 3.7,1.6; stroke-dashoffset: 0; stroke: #767676; stroke-linecap: round"/>
    <path d="M 112.681665 264.933622 
L 116.681665 266.933622 
L 112.681665 268.933622 
z
" clip-path="url(#pa4ba30e7b5)" style="fill: #767676; stroke-dasharray: 3.7,1.6; stroke-dashoffset: 0; stroke: #767676; stroke-linecap: round"/>
   </g>
   <g id="patch_11">
    <path d="M 123.914648 293.21915 
L 169.955391 293.21915 
Q 176.385662 293.21915 176.385662 290.324268 
L 176.385662 243.542976 
Q 176.385662 240.648094 169.955391 240.648094 
L 123.914648 240.648094 
Q 117.484376 240.648094 117.484376 243.542976 
L 117.484376 290.324268 
Q 117.484376 293.21915 123.914648 293.21915 
z
" clip-path="url(#pa4ba30e7b5)" style="fill: #e8e8e8; stroke-dasharray: 3.7,1.6; stroke-dashoffset: 0; stroke: #767676; stroke-linejoin: miter"/>
   </g>
   <g id="patch_12">
    <path d="M 175.816357 266.933622 
Q 178.573569 266.933622 180.212747 266.933622 
" clip-path="url(#pa4ba30e7b5)" style="fill: none; stroke-dasharray: 3.7,1.6; stroke-dashoffset: 0; stroke: #767676; stroke-linecap: round"/>
    <path d="M 176.212747 264.933622 
L 180.212747 266.933622 
L 176.212747 268.933622 
z
" clip-path="url(#pa4ba30e7b5)" style="fill: #767676; stroke-dasharray: 3.7,1.6; stroke-dashoffset: 0; stroke: #767676; stroke-linecap: round"/>
   </g>
   <g id="patch_13">
    <path d="M 187.445729 293.21915 
L 233.486472 293.21915 
Q 239.916744 293.21915 239.916744 290.324268 
L 239.916744 243.542976 
Q 239.916744 240.648094 233.486472 240.648094 
L 187.445729 240.648094 
Q 181.015458 240.648094 181.015458 243.542976 
L 181.015458 290.324268 
Q 181.015458 293.21915 187.445729 293.21915 
z
" clip-path="url(#pa4ba30e7b5)" style="fill: #e8e8e8; stroke-dasharray: 3.7,1.6; stroke-dashoffset: 0; stroke: #767676; stroke-linejoin: miter"/>
   </g>
   <g id="patch_14">
    <path d="M 239.347438 266.933622 
Q 242.10465 266.933622 243.743828 266.933622 
" clip-path="url(#pa4ba30e7b5)" style="fill: none; stroke-dasharray: 3.7,1.6; stroke-dashoffset: 0; stroke: #767676; stroke-linecap: round"/>
    <path d="M 239.743828 264.933622 
L 243.743828 266.933622 
L 239.743828 268.933622 
z
" clip-path="url(#pa4ba30e7b5)" style="fill: #767676; stroke-dasharray: 3.7,1.6; stroke-dashoffset: 0; stroke: #767676; stroke-linecap: round"/>
   </g>
   <g id="patch_15">
    <path d="M 250.97681 293.21915 
L 297.017554 293.21915 
Q 303.447825 293.21915 303.447825 290.324268 
L 303.447825 243.542976 
Q 303.447825 240.648094 297.017554 240.648094 
L 250.97681 240.648094 
Q 244.546539 240.648094 244.546539 243.542976 
L 244.546539 290.324268 
Q 244.546539 293.21915 250.97681 293.21915 
z
" clip-path="url(#pa4ba30e7b5)" style="fill: #e8e8e8; stroke-dasharray: 3.7,1.6; stroke-dashoffset: 0; stroke: #767676; stroke-linejoin: miter"/>
   </g>
   <g id="text_25">
    <text style="font: 700 10.5px 'Arial', 'DejaVu Sans', 'Liberation Sans', sans-serif; text-anchor: start" x="39.035065" y="215.972711" transform="rotate(-0 39.035065 215.972711)">c</text>
   </g>
   <g id="text_26">
    <text style="fill: #272727; font: 700 6.5px 'Arial', 'DejaVu Sans', 'Liberation Sans', sans-serif" transform="translate(67.875032 258.277145)">Train-only</text>
    <text style="fill: #272727; font: 700 6.5px 'Arial', 'DejaVu Sans', 'Liberation Sans', sans-serif" transform="translate(67.69425 265.228286)">headroom</text>
    <text style="fill: #272727; font: 700 6.5px 'Arial', 'DejaVu Sans', 'Liberation Sans', sans-serif" transform="translate(65.286203 272.094114)">AVAILABLE</text>
    <text style="fill: #272727; font: 700 6.5px 'Arial', 'DejaVu Sans', 'Liberation Sans', sans-serif" transform="translate(72.391008 278.959942)">NO-GO</text>
   </g>
   <g id="text_27">
    <text style="fill: #272727; font: 6.5px 'Arial', 'DejaVu Sans', 'Liberation Sans', sans-serif" transform="translate(140.612754 265.176489)">Pilot</text>
    <text style="fill: #272727; font: 6.5px 'Arial', 'DejaVu Sans', 'Liberation Sans', sans-serif" transform="translate(121.527129 272.051458)">NOT ACCESSED</text>
   </g>
   <g id="text_28">
    <text style="fill: #272727; font: 6.5px 'Arial', 'DejaVu Sans', 'Liberation Sans', sans-serif" transform="translate(200.355046 265.176489)">Formal</text>
    <text style="fill: #272727; font: 6.5px 'Arial', 'DejaVu Sans', 'Liberation Sans', sans-serif" transform="translate(185.05821 272.051458)">NOT ACCESSED</text>
   </g>
   <g id="text_29">
    <text style="fill: #272727; font: 6.5px 'Arial', 'DejaVu Sans', 'Liberation Sans', sans-serif" transform="translate(263.338198 265.178013)">Scaling</text>
    <text style="fill: #272727; font: 6.5px 'Arial', 'DejaVu Sans', 'Liberation Sans', sans-serif" transform="translate(259.249799 272.129153)">NOT RUN</text>
   </g>
   <g id="text_30">
    <text style="fill: #b64342; font: 700 6.4px 'Arial', 'DejaVu Sans', 'Liberation Sans', sans-serif; text-anchor: start" x="57.039825" y="316.146614" transform="rotate(-0 57.039825 316.146614)">Frozen-benchmark LER/tail/scaling SOTA claim: BLOCKED</text>
   </g>
   <g id="text_31">
    <text style="fill: #767676; font: 5.9px 'Arial', 'DejaVu Sans', 'Liberation Sans', sans-serif; text-anchor: start" x="57.039825" y="328.884094" transform="rotate(-0 57.039825 328.884094)">No post-outcome threshold, family or denominator selection is permitted.</text>
   </g>
   <g id="text_32">
    <text style="font: 700 9px 'Arial', 'DejaVu Sans', 'Liberation Sans', sans-serif; text-anchor: start" x="54.467717" y="209.404724" transform="rotate(-0 54.467717 209.404724)">Evidence-state boundary: unavailable is not zero</text>
   </g>
  </g>
  <g id="axes_4">
   <g id="patch_16">
    <path d="M 368.042508 286.271433 
L 496.304988 286.271433 
Q 500.244253 286.271433 500.244253 283.376551 
L 500.244253 242.385024 
Q 500.244253 239.490142 496.304988 239.490142 
L 368.042508 239.490142 
Q 364.103243 239.490142 364.103243 242.385024 
L 364.103243 283.376551 
Q 364.103243 286.271433 368.042508 286.271433 
z
" clip-path="url(#p1a4c217bd7)" style="fill: #e8e8e8; stroke-dasharray: 3.7,1.6; stroke-dashoffset: 0; stroke: #767676; stroke-linejoin: miter"/>
   </g>
   <g id="text_33">
    <text style="font: 700 10.5px 'Arial', 'DejaVu Sans', 'Liberation Sans', sans-serif; text-anchor: start" x="343.934204" y="215.972711" transform="rotate(-0 343.934204 215.972711)">d</text>
   </g>
   <g id="text_34">
    <text style="fill: #272727; font: 700 7.4px 'Arial', 'DejaVu Sans', 'Liberation Sans', sans-serif" transform="translate(407.715014 260.890766)">CNN / student</text>
    <text style="fill: #272727; font: 700 7.4px 'Arial', 'DejaVu Sans', 'Liberation Sans', sans-serif" transform="translate(380.917185 268.707247)">DROPPED · ABLATION ONLY</text>
   </g>
   <g id="text_35">
    <text style="fill: #4d4d4d; font: 6.2px 'Arial', 'DejaVu Sans', 'Liberation Sans', sans-serif; text-anchor: middle" x="432.173748" y="301.093228" transform="rotate(-0 432.173748 301.093228)">no legal teacher / formal retention</text>
   </g>
   <g id="text_36">
    <text style="fill: #b64342; font: 700 6.2px 'Arial', 'DejaVu Sans', 'Liberation Sans', sans-serif; text-anchor: middle" x="432.173748" y="313.830709" transform="rotate(-0 432.173748 313.830709)">does not vote on either primary lane</text>
   </g>
   <g id="text_37">
    <text style="fill: #767676; font: 5.7px 'Arial', 'DejaVu Sans', 'Liberation Sans', sans-serif; text-anchor: middle" x="432.173748" y="327.726142" transform="rotate(-0 432.173748 327.726142)">No RTL timing claim is transferred from Figure 6.</text>
   </g>
   <g id="text_38">
    <text style="font: 700 9px 'Arial', 'DejaVu Sans', 'Liberation Sans', sans-serif; text-anchor: start" x="353.388441" y="209.404724" transform="rotate(-0 353.388441 209.404724)">Replaceable learning module</text>
   </g>
  </g>
 </g>
 <defs>
  <clipPath id="p476589a591">
   <rect x="54.467717" y="21.6" width="257.210856" height="127.984252"/>
  </clipPath>
  <clipPath id="p085e3a9884">
   <rect x="353.388441" y="21.6" width="157.570614" height="127.984252"/>
  </clipPath>
  <clipPath id="pa4ba30e7b5">
   <rect x="54.467717" y="215.404724" width="257.210856" height="115.795276"/>
  </clipPath>
  <clipPath id="p1a4c217bd7">
   <rect x="353.388441" y="215.404724" width="157.570614" height="115.795276"/>
  </clipPath>
 </defs>
</svg>
